<?xml version="1.0" encoding="UTF-8"?><svg id="Layer_1" xmlns="http://www.w3.org/2000/svg" viewBox="0 0 116.45 116.45"><defs><style>.cls-1,.cls-2{fill:none;stroke:#000;stroke-miterlimit:10;}.cls-2{stroke-width:2px;}</style></defs><rect class="cls-2" x="1" y="1" width="114.45" height="114.45"/><line class="cls-2" x1="58.48" y1="1" x2="58.48" y2="115.45"/><line class="cls-1" x1="29.74" y1="1" x2="29.74" y2="115.45"/><line class="cls-1" x1="44.11" y1="1" x2="44.11" y2="115.45"/><line class="cls-1" x1="15.37" y1="1" x2="15.37" y2="115.45"/><line class="cls-1" x1="87.8" y1="1" x2="87.8" y2="115.45"/><line class="cls-1" x1="102.46" y1="1" x2="102.46" y2="115.45"/><line class="cls-1" x1="73.84" y1="1" x2="73.84" y2="115.45"/><line class="cls-2" x1="1" y1="58.23" x2="115.45" y2="58.23"/><g><line class="cls-1" x1="115.45" y1="58.83" x2="1" y2="58.83"/><line class="cls-1" x1="115.45" y1="30.09" x2="1" y2="30.09"/><line class="cls-1" x1="115.45" y1="44.46" x2="1" y2="44.46"/><line class="cls-1" x1="115.45" y1="15.72" x2="1" y2="15.72"/><line class="cls-1" x1="115.45" y1="88.15" x2="1" y2="88.15"/><line class="cls-1" x1="115.45" y1="102.8" x2="1" y2="102.8"/><line class="cls-1" x1="115.45" y1="74.19" x2="1" y2="74.19"/></g></svg>