<?xml version="1.0" encoding="UTF-8"?><svg id="Layer_1" xmlns="http://www.w3.org/2000/svg" viewBox="0 0 214.72 42.38"><path d="M20.03,13.33l.17,9.59h-.85c-.19-1.39-.39-2.45-.62-3.19-.23-.73-.74-1.64-1.55-2.74s-2.44-1.63-4.88-1.63c-1.39,0-2.53,.34-3.41,1.04-.88,.7-1.33,1.59-1.33,2.68,0,.98,.33,1.71,.99,2.2,.66,.49,1.23,.87,1.72,1.16,.49,.28,.94,.5,1.35,.65l1.75,.79,1.58,.79,1.8,.96c3.31,1.73,4.97,4.27,4.97,7.62,0,2.71-.96,4.89-2.88,6.54-1.92,1.66-4.48,2.48-7.67,2.48-2.07,0-3.82-.29-5.25-.88-1.43-.58-2.26-.91-2.48-.99-.23-.07-.45-.11-.68-.11-.75,0-1.18,.51-1.3,1.52H.62v-10.44h.85c.15,1.58,.37,2.79,.65,3.61,.28,.83,.92,1.88,1.92,3.16,1,1.28,2.74,1.92,5.22,1.92,1.51,0,2.77-.39,3.78-1.18s1.52-1.81,1.52-3.05c0-.94-.25-1.65-.73-2.14-.49-.49-.95-.87-1.38-1.16-.43-.28-1.04-.63-1.83-1.04l-1.75-.85-2.09-.96c-1.17-.49-2-.9-2.51-1.22-.51-.32-1.1-.76-1.78-1.32-1.66-1.54-2.48-3.46-2.48-5.76,0-2.44,.92-4.4,2.76-5.87,1.84-1.47,4.35-2.2,7.51-2.2,1.09,0,1.97,.06,2.65,.17s1.79,.39,3.33,.85l1.97,.39c.75,0,1.13-.47,1.13-1.41h.68Z"></path><path d="M22.63,15.31c3.39-1.54,5.74-2.93,7.05-4.15,1.32-1.22,2.84-3.43,4.57-6.63h.85l-.06,9.2h6.6v2.48h-6.6v18.57c0,.86,.12,1.73,.37,2.59,.24,.86,1.16,1.3,2.74,1.3,.83,0,1.52-.2,2.09-.62,.56-.41,1.13-1.17,1.69-2.25l.79,.39c-1.09,2.41-2.16,3.89-3.21,4.46-1.05,.56-2.03,.96-2.93,1.18-.9,.23-1.79,.34-2.65,.34-4.67,0-7-2.18-7-6.54V16.21h-4.34l.06-.9Z"></path><path d="M53.05,12.98v20.67c0,2.98,1.19,4.46,3.58,4.46,.83,0,1.6-.19,2.3-.57,.7-.38,1.72-1.15,3.04-2.31v-15.1c0-1.32-.16-2.2-.47-2.64s-.95-.65-1.92-.65c-.35,0-.82,.08-1.4,.23l-.17-.79,12.13-3.29,.06,22.25c0,2.18,.83,3.27,2.48,3.27l1.3-.11,.11,.79-12.13,3.2v-5.13l-2.26,2.04c-2.34,1.92-4.76,2.88-7.25,2.88-2.23,0-3.91-.51-5.04-1.52-1.13-1.02-1.85-1.96-2.15-2.82-.3-.86-.45-2.16-.45-3.89v-13.82c0-1.32-.16-2.19-.48-2.63-.32-.43-.93-.65-1.83-.65-.34,0-.81,.08-1.41,.23l-.17-.79,12.13-3.29Z"></path><path d="M94.47,7.12c0-1.31-.16-2.19-.47-2.62s-.94-.65-1.86-.65c-.45,0-.89,.06-1.34,.17l-.17-.79,12.13-3.23-.06,34.94c0,1.35,.18,2.29,.54,2.8,.36,.51,1.02,.76,2,.76,.41,0,.94-.12,1.58-.35l.11,.9-12.53,3.22,.06-4.12-1.24,1.37c-1.92,1.83-4.1,2.75-6.54,2.75-3.24,0-5.91-1.32-8.01-3.97-2.11-2.65-3.16-5.99-3.16-10.04,0-4.31,1.19-7.88,3.57-10.69,2.38-2.82,5.41-4.23,9.09-4.23,1.27,0,2.39,.21,3.35,.63,.96,.42,1.94,1.13,2.95,2.13V7.12Zm0,28.52v-14.55c0-1.4-.43-2.61-1.3-3.64-.87-1.02-1.92-1.53-3.16-1.53-1.84,0-3.29,.99-4.35,2.96s-1.58,4.66-1.58,8.07,.54,6.08,1.63,8.13c1.08,2.04,2.53,3.07,4.32,3.07,1.5,0,2.97-.84,4.43-2.5Z"></path><path d="M118.12,0l.06,17.57c.42-.41,.75-.74,.99-.99s.87-.81,1.87-1.69c1-.88,2.83-1.33,5.48-1.33,3.18,0,5.77,1.18,7.78,3.53,2,2.35,3.01,5.39,3.01,9.12,0,4.78-1.45,8.65-4.34,11.62-2.9,2.97-6.7,4.46-11.4,4.46-.68,0-1.49-.06-2.43-.17-.94-.11-1.94-.29-2.99-.54s-1.97-.51-2.76-.79c-.79-.28-1.94-.78-3.44-1.49V7.12c0-1.31-.15-2.19-.45-2.62s-.92-.65-1.86-.65c-.49,0-.94,.06-1.35,.17l-.17-.79,12.02-3.23Zm.06,38.05c1.13,1.28,2.44,1.92,3.92,1.92,1.89,0,3.44-1.16,4.65-3.47,1.21-2.31,1.82-5.31,1.82-9,0-3.08-.49-5.53-1.48-7.33s-2.36-2.71-4.11-2.71c-1.26,0-2.37,.5-3.34,1.5-.97,1-1.46,2.12-1.46,3.36v15.74Z"></path><path d="M150.73,12.98v20.67c0,2.98,1.19,4.46,3.58,4.46,.83,0,1.6-.19,2.3-.57,.7-.38,1.72-1.15,3.04-2.31v-15.1c0-1.32-.16-2.2-.47-2.64s-.95-.65-1.92-.65c-.35,0-.82,.08-1.4,.23l-.17-.79,12.13-3.29,.06,22.25c0,2.18,.83,3.27,2.48,3.27l1.3-.11,.11,.79-12.13,3.2v-5.13l-2.26,2.04c-2.34,1.92-4.76,2.88-7.25,2.88-2.23,0-3.91-.51-5.04-1.52-1.13-1.02-1.85-1.96-2.15-2.82-.3-.86-.45-2.16-.45-3.89v-13.82c0-1.32-.16-2.19-.48-2.63-.32-.43-.93-.65-1.83-.65-.34,0-.81,.08-1.41,.23l-.17-.79,12.13-3.29Z"></path><path d="M192.15,7.12c0-1.31-.16-2.19-.47-2.62s-.94-.65-1.86-.65c-.45,0-.89,.06-1.34,.17l-.17-.79,12.13-3.23-.06,34.94c0,1.35,.18,2.29,.54,2.8,.36,.51,1.02,.76,2,.76,.41,0,.94-.12,1.58-.35l.11,.9-12.53,3.22,.06-4.12-1.24,1.37c-1.92,1.83-4.1,2.75-6.54,2.75-3.24,0-5.91-1.32-8.01-3.97-2.11-2.65-3.16-5.99-3.16-10.04,0-4.31,1.19-7.88,3.57-10.69,2.38-2.82,5.41-4.23,9.09-4.23,1.27,0,2.39,.21,3.35,.63,.96,.42,1.94,1.13,2.95,2.13V7.12Zm0,28.52v-14.55c0-1.4-.43-2.61-1.3-3.64-.87-1.02-1.92-1.53-3.16-1.53-1.84,0-3.29,.99-4.35,2.96s-1.58,4.66-1.58,8.07,.54,6.08,1.63,8.13c1.08,2.04,2.53,3.07,4.32,3.07,1.5,0,2.97-.84,4.43-2.5Z"></path><path d="M210.1,32.46c1.32,0,2.42,.45,3.3,1.33,.88,.89,1.32,2,1.32,3.33s-.44,2.37-1.32,3.27c-.88,.89-1.98,1.33-3.3,1.33s-2.37-.45-3.27-1.36c-.9-.9-1.35-2-1.35-3.29s.45-2.33,1.35-3.23c.9-.91,1.99-1.36,3.27-1.36Z"></path></svg>